<svg width="61" height="61" viewBox="0 0 61 61" fill="none" xmlns="http://www.w3.org/2000/svg">
<path d="M42.1976 31.9505C48.3142 31.9505 53.2725 25.7525 53.2725 18.1069C53.2725 10.4613 48.3142 4.26325 42.1976 4.26325C36.0812 4.26325 31.1228 10.4613 31.1228 18.1069C31.1228 25.7525 36.0812 31.9505 42.1976 31.9505Z" fill="#0360FF"/>
<path d="M42.1959 29.874V57.3355" stroke="#E4E7EC" stroke-width="2.4" stroke-linecap="round" stroke-linejoin="round"/>
<path d="M17.3438 6.33738V57.3374" stroke="#E4E7EC" stroke-width="2.4" stroke-linecap="round" stroke-linejoin="round"/>
<path d="M27.1519 6.33738V16.1451C27.1519 17.433 26.8982 18.7084 26.4053 19.8983C25.9124 21.0882 25.19 22.1694 24.2793 23.0802C23.3685 23.9909 22.2873 24.7133 21.0974 25.2062C19.9075 25.6991 18.6321 25.9528 17.3442 25.9528C14.743 25.9528 12.2484 24.9195 10.4091 23.0802C8.5698 21.2409 7.5365 18.7462 7.5365 16.1451V6.33738" stroke="#E4E7EC" stroke-width="2.4" stroke-linecap="round" stroke-linejoin="round"/>
</svg>
