<svg width="66" height="66" viewBox="0 0 66 66" fill="none" xmlns="http://www.w3.org/2000/svg">
<path d="M44.5284 8.25866H51.2755C52.4684 8.25866 53.6127 8.73257 54.4561 9.5761C55.2995 10.4197 55.7736 11.5638 55.7736 12.7567V57.7376C55.7736 58.9305 55.2995 60.0748 54.4561 60.9182C53.6127 61.7616 52.4684 62.2357 51.2755 62.2357H15.2908C14.0978 62.2357 12.9537 61.7616 12.1102 60.9182C11.2666 60.0748 10.7927 58.9305 10.7927 57.7376V12.7567C10.7927 11.5638 11.2666 10.4197 12.1102 9.5761C12.9537 8.73257 14.0978 8.25866 15.2908 8.25866H22.0379" fill="#0360FF"/>
<path d="M40.0297 3.76232H26.5354C24.0512 3.76232 22.0374 5.77618 22.0374 8.26041V10.5094C22.0374 12.9937 24.0512 15.0075 26.5354 15.0075H40.0297C42.5139 15.0075 44.5278 12.9937 44.5278 10.5094V8.26041C44.5278 5.77618 42.5139 3.76232 40.0297 3.76232Z" fill="#E4E7EC" stroke="#E4E7EC" stroke-width="2.75168" stroke-linecap="round" stroke-linejoin="round"/>
<path d="M30.5003 26.1197C29.5413 26.1197 28.7638 26.8972 28.7638 27.8562V32.7402H23.8799C22.9209 32.7402 22.1434 33.5176 22.1434 34.4767V40.1203C22.1434 41.0793 22.9209 41.8568 23.8799 41.8568H28.7638V46.7406C28.7638 47.6994 29.5413 48.4771 30.5003 48.4771H36.1439C37.103 48.4771 37.8804 47.6994 37.8804 46.7406V41.8568H42.7643C43.7234 41.8568 44.5008 41.0793 44.5008 40.1203V34.4767C44.5008 33.5176 43.7234 32.7402 42.7643 32.7402H37.8804V27.8562C37.8804 26.8972 37.103 26.1197 36.1439 26.1197H30.5003Z" fill="white"/>
</svg>
