<svg width="66" height="66" viewBox="0 0 66 66" fill="none" xmlns="http://www.w3.org/2000/svg">
<path d="M13.75 24.75H52.25V46.75C52.25 49.7875 49.7875 52.25 46.75 52.25H19.25C16.2125 52.25 13.75 49.7875 13.75 46.75V24.75Z" stroke="#0066FF" stroke-width="8" stroke-linejoin="round"/>
<path d="M52.8 19.25H13.2C11.985 19.25 11 20.235 11 21.45V25.3C11 26.515 11.985 27.5 13.2 27.5H52.8C54.015 27.5 55 26.515 55 25.3V21.45C55 20.235 54.015 19.25 52.8 19.25Z" stroke="#0066FF" stroke-width="8" stroke-linejoin="round"/>
<path d="M33 19.25V52.25" stroke="#E4E7EC" stroke-width="8" stroke-linecap="round"/>
<path d="M39.05 11H26.95C25.735 11 24.75 11.985 24.75 13.2V17.05C24.75 18.265 25.735 19.25 26.95 19.25H39.05C40.265 19.25 41.25 18.265 41.25 17.05V13.2C41.25 11.985 40.265 11 39.05 11Z" fill="#E4E7EC"/>
</svg>
