<svg width="66" height="66" viewBox="0 0 66 66" fill="none" xmlns="http://www.w3.org/2000/svg">
<ellipse cx="33.372" cy="32.4984" rx="29.2366" ry="29.4205" fill="#0360FF"/>
<path d="M33.7621 19.1632V33.11L40.5991 40.0538" stroke="#E4E7EC" stroke-width="2.59881" stroke-linecap="round" stroke-linejoin="round"/>
<path fill-rule="evenodd" clip-rule="evenodd" d="M59.5958 34.6833L56.2596 34.4125C56.311 33.7749 56.3372 33.1294 56.3372 32.477C56.3372 31.8246 56.311 31.1791 56.2596 30.5414L59.5958 30.2707C59.6544 30.9983 59.6842 31.7341 59.6842 32.477C59.6842 33.2199 59.6544 33.9557 59.5958 34.6833ZM53.4464 15.1966L50.8805 17.3546C50.0563 16.3665 49.153 15.4485 48.1807 14.6107L50.3604 12.0603C51.4721 13.0181 52.5045 14.0674 53.4464 15.1966ZM35.406 5.76774L35.1298 9.11707C34.497 9.06446 33.8564 9.03757 33.2089 9.03757C32.5613 9.03757 31.9207 9.06446 31.288 9.11707L31.0118 5.76774C31.7363 5.70749 32.469 5.67677 33.2089 5.67677C33.9487 5.67677 34.6815 5.70749 35.406 5.76774ZM16.0574 12.0603L18.2371 14.6107C17.2648 15.4485 16.3615 16.3665 15.5372 17.3546L12.9713 15.1966C13.9132 14.0674 14.9457 13.0181 16.0574 12.0603ZM6.82195 30.2707C6.76338 30.9983 6.73352 31.7341 6.73352 32.477C6.73352 33.2199 6.76338 33.9557 6.82195 34.6833L10.1581 34.4125C10.1068 33.7749 10.0806 33.1294 10.0806 32.477C10.0806 31.8246 10.1068 31.1791 10.1581 30.5414L6.82195 30.2707ZM12.9713 49.7574L15.5372 47.5994C16.3615 48.5875 17.2648 49.5055 18.2371 50.3433L16.0574 52.8937C14.9457 51.9358 13.9132 50.8866 12.9713 49.7574ZM31.0118 59.1862L31.288 55.8369C31.9207 55.8895 32.5613 55.9164 33.2089 55.9164C33.8564 55.9164 34.497 55.8895 35.1298 55.8369L35.406 59.1862C34.6815 59.2465 33.9487 59.2772 33.2089 59.2772C32.469 59.2772 31.7363 59.2465 31.0118 59.1862ZM50.3604 52.8937C51.4721 51.9358 52.5045 50.8866 53.4465 49.7574L50.8805 47.5994C50.0563 48.5875 49.153 49.5055 48.1807 50.3433L50.3604 52.8937Z" fill="#E4E7EC"/>
</svg>
