<svg width="66" height="66" viewBox="0 0 66 66" fill="none" xmlns="http://www.w3.org/2000/svg">
<path d="M12.5368 16.7141H50.038V38.7737C50.038 41.1139 49.1084 43.3581 47.4535 45.013C45.7988 46.6679 43.5544 47.5975 41.2142 47.5975H19.1546C16.8144 47.5975 14.57 46.6679 12.9153 45.013C11.2604 43.3581 10.3308 41.1139 10.3308 38.7737V18.9201C10.3308 18.335 10.5632 17.7739 10.9769 17.3602C11.3906 16.9465 11.9517 16.7141 12.5368 16.7141Z" fill="#0360FF"/>
<path d="M5.92072 58.6275H59.3324" stroke="#E4E7EC" stroke-width="2.86774" stroke-linecap="round" stroke-linejoin="round"/>
<path d="M47.5303 20.2988H51.9422C54.2823 20.2988 56.5266 21.2284 58.1815 22.8832C59.8364 24.538 60.766 26.7824 60.766 29.1226C60.766 31.4628 59.8364 33.7072 58.1815 35.362C56.5266 37.0168 54.2823 37.9464 51.9422 37.9464H47.5303" stroke="#E4E7EC" stroke-width="2.86774" stroke-linecap="round" stroke-linejoin="round"/>
<path d="M18.7422 6.65111V11.063" stroke="#E4E7EC" stroke-width="2.86774" stroke-linecap="round" stroke-linejoin="round"/>
<path d="M40.802 6.65111V11.063" stroke="#E4E7EC" stroke-width="2.86774" stroke-linecap="round" stroke-linejoin="round"/>
<path d="M29.7721 6.65111V11.063" stroke="#E4E7EC" stroke-width="2.86774" stroke-linecap="round" stroke-linejoin="round"/>
</svg>
